<mxfile host="app.diagrams.net" agent="Mozilla/5.0 (X11; Linux x86_64; rv:137.0) Gecko/20100101 Firefox/137.0" version="26.2.4">
  <diagram name="Serveur" id="1nfj6GqTcBTg3F-6WquI">
    <mxGraphModel dx="1652" dy="1378" grid="1" gridSize="10" guides="1" tooltips="1" connect="1" arrows="1" fold="1" page="1" pageScale="1" pageWidth="850" pageHeight="1100" math="0" shadow="0">
      <root>
        <mxCell id="0" />
        <mxCell id="1" parent="0" />
        <mxCell id="VTrs3cKuAdEZsCjSFh4s-1" value="&lt;div&gt;Network&lt;/div&gt;" style="shape=folder;fontStyle=1;tabWidth=80;tabHeight=30;tabPosition=left;html=1;boundedLbl=1;whiteSpace=wrap;" parent="1" vertex="1">
          <mxGeometry x="60" y="60" width="420" height="230" as="geometry" />
        </mxCell>
        <mxCell id="VTrs3cKuAdEZsCjSFh4s-5" value="Logic" style="shape=folder;fontStyle=1;tabWidth=80;tabHeight=30;tabPosition=left;html=1;boundedLbl=1;whiteSpace=wrap;" parent="1" vertex="1">
          <mxGeometry x="1235" y="380" width="420" height="290" as="geometry" />
        </mxCell>
        <mxCell id="VTrs3cKuAdEZsCjSFh4s-7" value="" style="line;strokeWidth=1;fillColor=none;align=left;verticalAlign=middle;spacingTop=-1;spacingLeft=3;spacingRight=3;rotatable=0;labelPosition=right;points=[];portConstraint=eastwest;strokeColor=inherit;" parent="1" vertex="1">
          <mxGeometry x="430" y="340" height="50" as="geometry" />
        </mxCell>
        <mxCell id="VTrs3cKuAdEZsCjSFh4s-2" value="DAO" style="shape=folder;fontStyle=1;tabWidth=80;tabHeight=30;tabPosition=left;html=1;boundedLbl=1;whiteSpace=wrap;" parent="1" vertex="1">
          <mxGeometry x="1210" y="60" width="470" height="230" as="geometry" />
        </mxCell>
        <mxCell id="kDYmfxHkzgm_bAkKp4YB-1" value="Service" style="shape=folder;fontStyle=1;tabWidth=80;tabHeight=30;tabPosition=left;html=1;boundedLbl=1;whiteSpace=wrap;" vertex="1" parent="1">
          <mxGeometry x="610" y="60" width="470" height="230" as="geometry" />
        </mxCell>
        <mxCell id="kDYmfxHkzgm_bAkKp4YB-2" value="" style="endArrow=classic;html=1;rounded=0;entryX=0;entryY=0;entryDx=0;entryDy=160;entryPerimeter=0;" edge="1" parent="1" target="VTrs3cKuAdEZsCjSFh4s-5">
          <mxGeometry width="50" height="50" relative="1" as="geometry">
            <mxPoint x="930" y="290" as="sourcePoint" />
            <mxPoint x="980" y="240" as="targetPoint" />
            <Array as="points">
              <mxPoint x="930" y="540" />
            </Array>
          </mxGeometry>
        </mxCell>
        <mxCell id="kDYmfxHkzgm_bAkKp4YB-3" value="" style="endArrow=classic;html=1;rounded=0;entryX=0;entryY=0;entryDx=0;entryDy=130;entryPerimeter=0;" edge="1" parent="1" target="kDYmfxHkzgm_bAkKp4YB-1">
          <mxGeometry width="50" height="50" relative="1" as="geometry">
            <mxPoint x="480" y="190" as="sourcePoint" />
            <mxPoint x="530" y="140" as="targetPoint" />
          </mxGeometry>
        </mxCell>
        <mxCell id="kDYmfxHkzgm_bAkKp4YB-4" value="" style="endArrow=classic;html=1;rounded=0;entryX=0;entryY=0;entryDx=0;entryDy=130;entryPerimeter=0;" edge="1" parent="1">
          <mxGeometry width="50" height="50" relative="1" as="geometry">
            <mxPoint x="1080" y="190" as="sourcePoint" />
            <mxPoint x="1210" y="190" as="targetPoint" />
          </mxGeometry>
        </mxCell>
        <mxCell id="kDYmfxHkzgm_bAkKp4YB-5" value="" style="endArrow=classic;html=1;rounded=0;entryX=0;entryY=0;entryDx=250;entryDy=30;entryPerimeter=0;exitX=0.582;exitY=0.996;exitDx=0;exitDy=0;exitPerimeter=0;" edge="1" parent="1" source="VTrs3cKuAdEZsCjSFh4s-2" target="VTrs3cKuAdEZsCjSFh4s-5">
          <mxGeometry width="50" height="50" relative="1" as="geometry">
            <mxPoint x="1440" y="290" as="sourcePoint" />
            <mxPoint x="1570" y="290" as="targetPoint" />
          </mxGeometry>
        </mxCell>
      </root>
    </mxGraphModel>
  </diagram>
</mxfile>
